<?xml version="1.0" standalone="no"?>
<!DOCTYPE svg PUBLIC "-//W3C//DTD SVG 20010904//EN"
 "http://www.w3.org/TR/2001/REC-SVG-20010904/DTD/svg10.dtd">
<svg version="1.0" xmlns="http://www.w3.org/2000/svg"
 width="1280.000000pt" height="640.000000pt" viewBox="0 0 1280.000000 640.000000"
 preserveAspectRatio="xMidYMid meet">
<metadata>
Created by potrace 1.15, written by Peter Selinger 2001-2017
</metadata>
<g transform="translate(0.000000,640.000000) scale(0.100000,-0.100000)"
fill="#000000" stroke="none">
<path d="M0 3970 l0 -70 3080 0 3080 0 0 70 0 70 -3080 0 -3080 0 0 -70z"/>
<path d="M6630 3970 l0 -70 3085 0 3085 0 0 70 0 70 -3085 0 -3085 0 0 -70z
m6160 0 l0 -60 -3075 0 -3075 0 0 60 0 60 3075 0 3075 0 0 -60z"/>
<path d="M130 3330 l0 -449 320 -3 320 -3 0 198 0 197 -125 0 -125 0 0 60 0
60 190 0 190 0 0 -320 0 -320 -450 0 -450 0 0 -65 0 -65 515 0 515 0 0 455 0
455 -322 -2 -323 -3 0 -195 0 -195 128 -3 127 -3 0 -59 0 -60 -190 0 -190 0 0
320 0 320 830 0 830 0 0 -320 0 -320 -184 0 -184 0 -4 60 -3 60 128 0 127 0 0
200 0 200 -322 -2 -323 -3 -3 -452 -2 -453 970 0 970 0 -2 453 -3 452 -322 3
-323 2 0 -200 0 -200 125 0 125 0 0 -60 0 -60 -190 0 -190 0 0 320 0 320 833
-2 832 -3 3 -317 2 -318 -190 0 -190 0 0 60 0 60 125 0 125 0 0 200 0 200
-320 0 -320 0 0 -455 0 -455 965 0 965 0 -2 453 -3 452 -320 0 -320 0 -3 -197
-2 -198 130 0 130 0 0 -60 0 -60 -190 0 -190 0 0 320 0 320 830 0 830 0 0
-320 0 -320 -190 0 -190 0 0 60 0 59 128 3 127 3 0 195 0 195 -322 3 -323 2 0
-455 0 -455 450 0 450 0 0 65 0 65 -385 0 -385 0 0 320 0 320 190 0 190 0 0
-60 0 -59 -125 -3 -126 -3 -2 -193 -2 -192 323 0 322 0 0 450 0 450 -965 0
-965 0 0 -448 c0 -247 2 -451 4 -453 2 -2 149 -3 325 -1 l321 3 0 194 0 195
-130 0 -130 0 0 60 0 60 190 0 190 0 0 -320 0 -320 -830 0 -830 0 0 320 0 320
190 0 190 0 0 -60 0 -59 -127 -3 -128 -3 0 -192 c0 -106 3 -193 8 -193 4 0
149 0 322 0 l315 0 0 450 0 450 -965 0 -965 0 0 -450 0 -450 315 0 c173 0 318
0 323 0 4 0 7 87 7 193 l0 192 -127 3 -128 3 0 59 0 60 190 0 190 0 0 -320 0
-320 -830 0 -830 0 0 320 0 320 190 0 190 0 0 -60 0 -60 -130 0 -130 0 0 -195
0 -195 325 0 325 0 0 450 0 450 -965 0 -965 0 0 -450z"/>
<path d="M6762 3328 l3 -453 320 0 320 0 3 198 2 197 -124 0 -124 0 -4 56 c-1
31 -1 58 1 60 2 2 87 4 188 4 l183 0 0 -315 0 -315 -447 -2 -448 -3 -3 -67 -3
-68 521 0 520 0 -2 453 -3 452 -325 0 -325 0 0 -195 0 -195 128 -3 127 -3 0
-59 0 -60 -185 0 -185 0 0 315 0 315 825 0 825 0 0 -315 0 -315 -185 0 -185 0
0 60 0 59 128 3 127 3 0 195 0 195 -325 0 -325 0 0 -450 0 -450 968 -3 967 -2
-2 452 -3 453 -322 3 -323 2 0 -200 0 -200 125 0 125 0 0 -60 0 -60 -185 0
-185 0 0 315 0 315 830 0 830 0 -2 -312 -3 -313 -185 0 -185 0 0 55 0 55 128
3 127 3 -2 197 -3 197 -322 3 -323 2 0 -455 0 -455 965 0 965 0 0 455 0 455
-322 -2 -323 -3 -3 -197 -2 -198 130 0 131 0 -3 -57 -3 -58 -185 0 -185 0 -3
313 -2 312 830 0 830 0 0 -315 0 -315 -185 0 -185 0 0 60 0 60 125 0 125 0 0
200 0 200 -322 -2 -323 -3 -3 -452 -2 -453 455 0 456 0 -3 68 -3 67 -382 3
-383 2 0 315 0 315 185 0 185 0 0 -60 0 -60 -125 0 -125 0 0 -200 0 -200 323
2 322 3 3 453 2 452 -967 -2 -968 -3 0 -450 0 -450 325 0 325 0 0 195 0 195
-127 3 -128 3 0 59 0 60 185 0 185 0 0 -315 0 -315 -825 0 -825 0 0 315 0 315
185 0 185 0 0 -60 0 -59 -127 -3 -128 -3 0 -195 0 -195 325 0 325 0 3 453 2
452 -970 0 -970 0 2 -452 3 -453 325 0 325 0 0 195 0 195 -127 3 -128 3 0 59
0 60 185 0 185 0 0 -315 0 -315 -825 0 -825 0 0 315 0 315 183 -2 182 -3 3
-57 3 -58 -131 0 -130 0 2 -197 3 -198 323 -3 322 -2 0 455 0 455 -965 0 -965
0 2 -452z m1918 2 l0 -440 -315 0 -315 0 0 185 0 185 130 0 131 0 -3 68 -3 67
-195 0 -195 0 0 -325 0 -325 835 0 835 0 3 328 2 327 -194 0 -194 0 -4 -66
c-1 -36 -1 -68 1 -70 2 -2 60 -4 128 -4 l123 0 0 -185 0 -185 -315 0 -315 0 0
440 0 440 958 0 957 0 0 -440 0 -440 -312 0 -313 0 0 185 0 185 125 0 125 0 0
70 0 70 -195 0 -195 0 2 -327 3 -328 835 0 835 0 0 325 0 325 -197 3 -198 2 0
-69 0 -70 128 -3 127 -3 2 -182 2 -183 -315 0 -314 0 0 440 0 440 955 0 955 0
0 -440 0 -440 -315 0 -315 0 0 185 0 184 128 3 127 3 0 65 0 65 -198 3 -197 2
2 -327 3 -328 383 -3 382 -2 0 -55 0 -55 -445 0 -445 0 0 440 0 440 315 0 315
0 0 -185 0 -184 -127 -3 -128 -3 0 -65 0 -65 198 -3 197 -2 -2 327 -3 328
-835 0 -835 0 0 -325 0 -325 195 0 195 0 3 68 3 67 -131 0 -130 0 0 185 0 185
315 0 315 0 0 -440 0 -440 -955 0 -955 0 0 440 0 440 315 0 315 0 0 -185 0
-185 -130 0 -131 0 3 -67 3 -68 195 0 195 0 0 325 0 325 -835 0 -835 0 -3
-328 -2 -327 197 2 198 3 0 65 0 65 -127 3 -128 3 0 184 0 185 315 0 315 0 0
-440 0 -440 -955 0 -955 0 0 440 0 440 315 0 315 0 -2 -182 -3 -183 -127 -3
-128 -3 0 -70 0 -69 198 2 197 3 0 325 0 325 -835 0 -835 0 -3 -327 -2 -328
195 0 195 0 0 70 0 70 -125 0 -125 0 0 188 0 187 315 -3 315 -3 0 -439 0 -440
-510 0 -510 0 0 55 0 55 448 2 447 3 3 328 2 327 -197 -2 -198 -3 0 -65 0 -65
128 -3 127 -3 0 -184 0 -185 -315 0 -315 0 0 440 0 440 955 0 955 0 0 -440z"/>
<path d="M0 2430 l0 -70 3080 0 3080 0 0 70 0 70 -3080 0 -3080 0 0 -70z"/>
<path d="M6630 2430 l0 -70 3085 0 3085 0 0 70 0 70 -3085 0 -3085 0 0 -70z
m6160 0 l0 -60 -3075 0 -3075 0 0 60 0 60 3075 0 3075 0 0 -60z"/>
</g>
</svg>
